HIERARCHY
ROOT Hips
{
	OFFSET 0.000000 0.000000 0.000000
	CHANNELS 6 Xposition Yposition Zposition Xrotation Yrotation Zrotation
	JOINT Chest
	{
		OFFSET 0.000000 0.009282 11.569106
		CHANNELS 3 Xrotation Yrotation Zrotation
		JOINT Chest2
		{
			OFFSET 0.000000 -0.016863 9.269641
			CHANNELS 3 Xrotation Yrotation Zrotation
			JOINT Chest3
			{
				OFFSET 0.000000 0.000000 8.374491
				CHANNELS 3 Xrotation Yrotation Zrotation
				JOINT Chest4
				{
					OFFSET 0.000000 0.000000 8.374493
					CHANNELS 3 Xrotation Yrotation Zrotation
					JOINT Neck
					{
						OFFSET 0.000000 -0.000001 12.152554
						CHANNELS 3 Xrotation Yrotation Zrotation
						JOINT Head
						{
							OFFSET 0.000000 -0.040100 7.802319
							CHANNELS 3 Xrotation Yrotation Zrotation
							End Site
							{
								OFFSET 0.000000 -0.020946 14.853096
							}
						}
					}
					JOINT RightCollar
					{
						OFFSET -2.894404 0.000000 6.791374
						CHANNELS 3 Xrotation Yrotation Zrotation
						JOINT RightShoulder
						{
							OFFSET -13.574684 0.000000 0.000000
							CHANNELS 3 Xrotation Yrotation Zrotation
							JOINT RightElbow
							{
								OFFSET -23.923903 0.000000 0.000000
								CHANNELS 3 Xrotation Yrotation Zrotation
								JOINT RightWrist
								{
									OFFSET -19.846718 -0.012765 0.000000
									CHANNELS 3 Xrotation Yrotation Zrotation
									End Site
									{
										OFFSET -14.973145 0.000000 0.000000
									}
								}
							}
						}
					}
					JOINT LeftCollar
					{
						OFFSET 2.894404 0.000000 6.791374
						CHANNELS 3 Xrotation Yrotation Zrotation
						JOINT LeftShoulder
						{
							OFFSET 13.574684 0.000000 0.000000
							CHANNELS 3 Xrotation Yrotation Zrotation
							JOINT LeftElbow
							{
								OFFSET 23.923903 0.000000 0.000000
								CHANNELS 3 Xrotation Yrotation Zrotation
								JOINT LeftWrist
								{
									OFFSET 19.846718 -0.012765 0.000000
									CHANNELS 3 Xrotation Yrotation Zrotation
									End Site
									{
										OFFSET 14.973145 0.000000 0.000000
									}
								}
							}
						}
					}
				}
			}
		}
	}
	JOINT RightHip
	{
		OFFSET -9.469263 -0.004642 0.045487
		CHANNELS 3 Xrotation Yrotation Zrotation
		JOINT RightKnee
		{
			OFFSET 0.000000 -0.002666 -40.478676
			CHANNELS 3 Xrotation Yrotation Zrotation
			JOINT RightAnkle
			{
				OFFSET 0.000000 -0.049110 -35.224068
				CHANNELS 3 Xrotation Yrotation Zrotation
				JOINT RightToe
				{
					OFFSET 0.000000 -12.539530 -6.151390
					CHANNELS 3 Xrotation Yrotation Zrotation
					End Site
					{
						OFFSET 0.000000 -5.044995 -1.291870
					}
				}
			}
		}
	}
	JOINT LeftHip
	{
		OFFSET 9.469263 -0.004642 0.045487
		CHANNELS 3 Xrotation Yrotation Zrotation
		JOINT LeftKnee
		{
			OFFSET 0.000000 -0.002666 -40.478676
			CHANNELS 3 Xrotation Yrotation Zrotation
			JOINT LeftAnkle
			{
				OFFSET 0.000000 -0.049110 -35.224068
				CHANNELS 3 Xrotation Yrotation Zrotation
				JOINT LeftToe
				{
					OFFSET 0.000000 -12.539530 -6.151390
					CHANNELS 3 Xrotation Yrotation Zrotation
					End Site
					{
						OFFSET 0.000000 -5.044995 -1.291870
					}
				}
			}
		}
	}
}
MOTION
Frames: 12
Frame Time: 0.016667
-10.680421 -4.669812 82.974060 3.259712 6.576544 -113.291555 1.856684 -1.081948 1.147480 0.821662 -0.482578 0.547526 0.821659 -0.482578 0.547528 0.615810 -0.362671 0.409997 19.111086 0.860644 -2.193868 -0.646316 2.271319 -3.735340 -1.026802 -7.417562 0.414669 69.877370 -84.155287 82.323287 -32.744128 -53.182527 13.484118 -61.990093 22.641469 44.865836 4.515440 7.668475 -11.282515 12.875298 52.749749 -59.582575 40.435970 5.221838 -29.032177 17.446716 -31.618455 -55.043275 10.822785 -0.242503 -1.041816 0.699193 -0.035448 -5.474959 -3.986500 -1.116359 5.974413 0.072345 0.046100 -0.028895 11.468394 0.423823 0.815932 0.152576 -1.155848 3.283238 -4.243619 0.745912 -3.687913 -0.015187 0.017172 0.024624 
-10.707398 -4.647546 82.971565 3.265270 6.567956 -113.362016 1.850197 -1.085107 1.142870 0.818319 -0.482449 0.545676 0.818318 -0.482449 0.545678 0.613305 -0.362569 0.408609 19.078617 0.854522 -2.201146 -0.706470 2.263390 -3.750083 -1.051969 -7.415697 0.401992 69.951123 -84.137112 82.360894 -32.674911 -53.185498 13.456604 -61.986562 22.640474 44.827314 4.524213 7.652972 -11.284027 12.911195 52.745122 -59.577186 40.438572 5.204608 -28.999699 17.454895 -31.602018 -55.019742 10.831858 -0.242633 -1.035779 0.707682 -0.037777 -5.431327 -4.012271 -1.115318 6.006761 0.073372 0.041951 -0.029003 11.499450 0.426593 0.869910 0.140215 -1.159341 3.302745 -4.265347 0.750469 -3.663369 -0.018604 0.014256 0.025817 
-10.736269 -4.624434 82.968323 3.265670 6.554066 -113.428590 1.838320 -1.083985 1.135969 0.812470 -0.480868 0.543047 0.812469 -0.480868 0.543049 0.608920 -0.361373 0.406645 19.107714 0.833235 -2.203867 -0.652746 2.224521 -3.762268 -1.060603 -7.409633 0.398460 70.020538 -84.136517 82.410330 -32.635709 -53.183463 13.405825 -61.989820 22.640590 44.784321 4.511985 7.646754 -11.289070 12.951262 52.734289 -59.558689 40.460883 5.193102 -28.947916 17.506483 -31.586821 -54.986598 10.839380 -0.243765 -1.023874 0.708635 -0.037488 -5.391232 -4.036798 -1.111479 6.017283 0.075258 0.036867 -0.028322 11.529261 0.429685 0.919461 0.121027 -1.167821 3.333153 -4.285894 0.762077 -3.671739 -0.020871 0.012263 0.025230 
-10.766380 -4.596246 82.964561 3.266479 6.542877 -113.493422 1.814363 -1.081595 1.125736 0.801299 -0.478621 0.539213 0.801299 -0.478621 0.539207 0.600550 -0.359674 0.403781 19.198659 0.802055 -2.200829 -0.484557 2.163952 -3.767933 -1.063720 -7.406347 0.408293 70.026672 -84.132501 82.372409 -32.635238 -53.184699 13.342003 -61.989404 22.647031 44.761761 4.526180 7.639457 -11.295842 12.987612 52.734992 -59.535672 40.488101 5.168409 -28.872145 17.543133 -31.570473 -54.985813 10.856898 -0.247377 -1.011222 0.700307 -0.034617 -5.358859 -4.060114 -1.108422 6.041261 0.078178 0.033234 -0.027793 11.563135 0.429491 0.962244 0.102262 -1.170151 3.366126 -4.308953 0.771403 -3.679414 -0.022055 0.010515 0.025439 
-10.799302 -4.565789 82.960716 3.276082 6.545290 -113.560870 1.795892 -1.074291 1.120571 0.792998 -0.475159 0.537803 0.792998 -0.475159 0.537804 0.594327 -0.357068 0.402737 19.330723 0.764947 -2.193782 -0.240293 2.090090 -3.768636 -1.054167 -7.404413 0.414380 70.090322 -84.124004 82.418916 -32.617422 -53.166073 13.309125 -61.987669 22.684339 44.773188 4.532524 7.624358 -11.319104 13.018964 52.742219 -59.505346 40.499726 5.144840 -28.775922 17.570221 -31.558828 -54.999586 10.897285 -0.252905 -1.009628 0.682352 -0.034547 -5.311116 -4.080894 -1.103887 6.066986 0.080960 0.031512 -0.027931 11.614498 0.428876 0.996989 0.086625 -1.176860 3.402331 -4.337513 0.782700 -3.658776 -0.022307 0.009592 0.025029 
-10.835191 -4.535783 82.957047 3.293934 6.561182 -113.632040 1.778823 -1.070591 1.108757 0.785712 -0.473737 0.533492 0.785711 -0.473737 0.533490 0.588867 -0.355990 0.399505 19.440730 0.737846 -2.181234 -0.036976 2.033437 -3.755711 -1.078147 -7.401536 0.425664 70.017724 -84.103855 82.315650 -32.609871 -53.141805 13.253811 -62.015399 22.721594 44.817799 4.528463 7.632393 -11.320063 13.059769 52.763232 -59.474091 40.501861 5.115509 -28.662510 17.610651 -31.535407 -54.988808 10.954937 -0.259449 -1.002908 0.663025 -0.035088 -5.261999 -4.100214 -1.101341 6.065759 0.082039 0.032170 -0.028705 11.683648 0.423495 1.022392 0.074116 -1.182502 3.436910 -4.369256 0.794896 -3.677366 -0.024250 0.009336 0.024426 
-10.869111 -4.502726 82.953239 3.323021 6.590470 -113.712760 1.759893 -1.072398 1.098433 0.777750 -0.474691 0.529471 0.777752 -0.474691 0.529473 0.582901 -0.356693 0.396494 19.475979 0.724217 -2.165324 0.027668 2.002530 -3.731363 -1.082875 -7.395635 0.426835 69.823678 -84.053715 82.098765 -32.596046 -53.129928 13.213417 -62.016328 22.750093 44.834482 4.536735 7.658795 -11.293620 13.104233 52.784689 -59.458422 40.519961 5.082283 -28.564920 17.687118 -31.487452 -54.890989 11.023305 -0.269445 -0.989477 0.655545 -0.035351 -5.215376 -4.125704 -1.099058 6.088558 0.083339 0.032413 -0.029261 11.760651 0.421257 1.029824 0.078007 -1.191698 3.502745 -4.411017 0.803814 -3.645026 -0.023648 0.010306 0.025517 
-10.899096 -4.471074 82.948944 3.359498 6.626536 -113.803540 1.770018 -1.076587 1.085963 0.782750 -0.477044 0.524967 0.782751 -0.477044 0.524970 0.586649 -0.358457 0.393114 19.426926 0.721475 -2.142694 -0.064231 1.991836 -3.690171 -1.079804 -7.386564 0.443751 69.560293 -84.029454 81.863997 -32.525631 -53.142977 13.229877 -61.958497 22.759258 44.778942 4.510128 7.698579 -11.248855 13.093900 52.783869 -59.410058 40.541595 5.051392 -28.516665 17.745943 -31.447499 -54.839845 11.089492 -0.283224 -0.979862 0.661761 -0.036383 -5.159504 -4.155528 -1.090704 6.114607 0.085747 0.029442 -0.028543 11.843902 0.413307 1.019445 0.087913 -1.202950 3.584656 -4.457042 0.812735 -3.613054 -0.021780 0.015415 0.024445 
-10.923756 -4.439704 82.944580 3.393813 6.663920 -113.897011 1.800981 -1.074988 1.084050 0.796645 -0.475862 0.525414 0.796643 -0.475863 0.525416 0.597070 -0.357583 0.393443 19.324408 0.718993 -2.119854 -0.255440 1.983023 -3.647826 -1.109136 -7.404815 0.454970 69.225825 -84.014721 81.545717 -32.472195 -53.177295 13.284311 -61.873024 22.748387 44.664212 4.478407 7.719712 -11.211564 13.057110 52.763184 -59.373612 40.545113 5.034508 -28.504145 17.717559 -31.437722 -54.867463 11.142747 -0.296282 -0.981680 0.685995 -0.042249 -5.089207 -4.192434 -1.074980 6.087306 0.089435 0.026892 -0.028782 11.917508 0.409754 0.999531 0.109858 -1.212221 3.661078 -4.504656 0.811162 -3.568612 -0.021299 0.024286 0.024386 
-10.940749 -4.409546 82.940857 3.423573 6.690668 -113.994635 1.837982 -1.069921 1.095832 0.813267 -0.473149 0.531991 0.813267 -0.473149 0.531994 0.609535 -0.355571 0.398365 19.205056 0.715626 -2.098639 -0.477842 1.973508 -3.608505 -1.126376 -7.413554 0.438957 69.248870 -83.999620 81.596650 -32.446469 -53.216927 13.358072 -61.799934 22.721259 44.563976 4.455896 7.718893 -11.205584 12.990388 52.742485 -59.315234 40.498968 5.051448 -28.537936 17.668041 -31.436547 -54.894951 11.173261 -0.306599 -0.993692 0.724220 -0.045509 -4.994988 -4.229773 -1.061225 6.082086 0.091343 0.023592 -0.027010 11.968471 0.402261 0.976840 0.146604 -1.218751 3.737455 -4.554521 0.806277 -3.524825 -0.022304 0.035491 0.022526 
-10.956011 -4.381848 82.938118 3.444147 6.701110 -114.090312 1.874900 -1.062677 1.110691 0.829234 -0.469974 0.539000 0.829235 -0.469974 0.538996 0.621509 -0.353212 0.403613 19.084681 0.708807 -2.073543 -0.702339 1.956410 -3.563208 -1.175512 -7.419966 0.419830 69.370673 -83.987728 81.718432 -32.431449 -53.253073 13.416931 -61.751235 22.708644 44.512360 4.429633 7.709486 -11.202716 12.892246 52.738165 -59.224072 40.451194 5.108533 -28.600662 17.611803 -31.439245 -54.904049 11.181522 -0.311524 -1.010751 0.765809 -0.054117 -4.883485 -4.264232 -1.046142 6.095793 0.091168 0.022282 -0.026223 11.993294 0.398036 0.968112 0.180510 -1.226875 3.812775 -4.593260 0.800845 -3.478965 -0.024035 0.045330 0.020350 
-10.976340 -4.356885 82.936768 3.455560 6.697575 -114.179596 1.894062 -1.051121 1.123678 0.837036 -0.465374 0.544772 0.837036 -0.465374 0.544772 0.627359 -0.349778 0.407941 18.996990 0.696612 -2.040636 -0.866497 1.926025 -3.505789 -1.182251 -7.422717 0.414731 69.493159 -83.974280 81.847598 -32.400563 -53.263352 13.473221 -61.680324 22.750377 44.461813 4.417545 7.691379 -11.193691 12.786830 52.758020 -59.132868 40.457608 5.166498 -28.655966 17.549983 -31.442007 -54.907443 11.180337 -0.316858 -1.038753 0.796586 -0.059928 -4.769720 -4.293144 -1.032753 6.059308 0.089346 0.022185 -0.026093 12.007963 0.397289 0.996335 0.196972 -1.234226 3.863018 -4.619979 0.795193 -3.474719 -0.026990 0.051864 0.018877 
